<svg height="512pt" viewBox="-24 0 512 512" width="512pt" xmlns="http://www.w3.org/2000/svg"><g fill="#fdd1a3"><path d="m279.402344 297.820312h-13.503906c.003906-21.921874.003906-31.71875.003906-47.839843.003906-17.007813-13.785156-30.789063-30.792969-30.789063h-.003906c-15.722657 0-28.921875 11.84375-30.617188 27.476563l-7.988281 63.214843c-6.363281 31.941407-24.40625 28.652344-48.609375 28.652344h-16.972656v120.414063h29.230469c4.296874 22.273437 15.648437 30.734375 28.976562 30.734375h68.453125"/><path d="m370.300781 348.863281h-90.878906c-14.09375 0-25.519531-11.425781-25.519531-25.519531 0-14.097656 11.425781-25.523438 25.519531-25.523438h90.878906c14.097657 0 25.523438 11.425782 25.523438 25.523438 0 14.09375-11.425781 25.519531-25.523438 25.519531zm0 0"/><path d="m380.613281 399.910156h-90.878906c-14.09375 0-25.519531-11.425781-25.519531-25.523437 0-14.09375 11.425781-25.519531 25.519531-25.519531h90.878906c14.097657 0 25.523438 11.425781 25.523438 25.519531 0 14.097656-11.425781 25.523437-25.523438 25.523437zm0 0"/><path d="m380.613281 450.953125h-90.878906c-14.09375 0-25.519531-11.425781-25.519531-25.519531 0-14.097656 11.425781-25.523438 25.519531-25.523438h90.878906c14.097657 0 25.523438 11.429688 25.523438 25.523438s-11.425781 25.519531-25.523438 25.519531zm0 0"/><path d="m370.300781 502h-90.878906c-14.09375 0-25.519531-11.425781-25.519531-25.523438 0-14.09375 11.425781-25.519531 25.519531-25.519531h90.878906c14.097657 0 25.523438 11.425781 25.523438 25.519531 0 14.097657-11.425781 25.523438-25.523438 25.523438zm0 0"/></g><path d="m80.886719 328.164062h50.035156v144.296876h-50.035156zm0 0" fill="#dae9ec"/><path d="m10 307.3125h70.886719v185.996094h-70.886719zm0 0" fill="#0082a0"/><path d="m45.445312 360.550781c-2.632812 0-5.210937-1.070312-7.070312-2.929687-.460938-.460938-.882812-.972656-1.25-1.519532-.359375-.542968-.671875-1.132812-.921875-1.730468-.25-.601563-.4375-1.230469-.570313-1.871094-.128906-.640625-.1875-1.300781-.1875-1.949219 0-.660156.058594-1.3125.1875-1.960937.132813-.628906.320313-1.261719.570313-1.871094.25-.597656.5625-1.179688.921875-1.71875.367188-.550781.789062-1.058594 1.25-1.519531 2.320312-2.332031 5.769531-3.390625 9.019531-2.742188.640625.132813 1.269531.320313 1.871094.570313.609375.25 1.1875.5625 1.726563.921875.550781.371093 1.0625.789062 1.523437 1.25.457031.460937.878906.96875 1.238281 1.519531.359375.539062.671875 1.121094.921875 1.71875.25.609375.4375 1.242188.566407 1.871094.132812.648437.203124 1.300781.203124 1.960937 0 .648438-.070312 1.308594-.203124 1.949219-.128907.640625-.316407 1.269531-.566407 1.871094-.25.597656-.5625 1.1875-.921875 1.730468-.359375.546876-.78125 1.058594-1.238281 1.519532-.460937.457031-.972656.878906-1.523437 1.238281-.539063.359375-1.117188.671875-1.726563.921875-.601563.25-1.230469.4375-1.871094.570312-.640625.128907-1.300781.199219-1.949219.199219zm0 0"/><path d="m416.136719 425.433594c0-10.007813-4.160157-19.0625-10.839844-25.523438 6.679687-6.460937 10.839844-15.515625 10.839844-25.519531 0-12.8125-6.816407-24.058594-17.011719-30.308594 4.214844-5.839843 6.699219-13.003906 6.699219-20.738281 0-19.585938-15.933594-35.523438-35.523438-35.523438h-94.398437l.003906-37.835937c0-10.898437-4.242188-21.140625-11.949219-28.84375-7.703125-7.703125-17.949219-11.945313-28.851562-11.945313-20.839844 0-38.253907 15.601563-40.546875 36.304688l-7.933594 62.769531c-4.191406 20.660157-11.355469 20.582031-32.402344 20.320313-2.0625-.027344-13.300781-.050782-13.300781-.050782v-.375c0-5.523437-4.476563-10-10-10h-40.035156v-10.851562c0-5.523438-4.480469-10-10-10h-70.886719c-5.523438 0-10 4.476562-10 10v185.996094c0 5.523437 4.476562 10 10 10h70.886719c5.519531 0 10-4.476563 10-10v-10.847656h40.035156c5.523437 0 10-4.476563 10-10v-3.511719h11.40625c8.429687 27.554687 28.167969 30.734375 36.796875 30.734375h63.425781c6.519531 7.539062 16.148438 12.316406 26.871094 12.316406h90.878906c19.585938 0 35.519531-15.933594 35.519531-35.523438 0-7.734374-2.484374-14.898437-6.695312-20.738281 10.195312-6.25 17.011719-17.496093 17.011719-30.304687zm-20 0c0 8.558594-6.960938 15.523437-15.523438 15.523437h-67.976562v-8.839843c0-5.523438-4.480469-10-10-10-5.523438 0-10 4.476562-10 10v8.839843h-2.902344c-8.558594 0-15.519531-6.964843-15.519531-15.523437s6.960937-15.523438 15.519531-15.523438h90.878906c8.558594 0 15.523438 6.964844 15.523438 15.523438zm-83.5-35.523438v-7.417968c0-5.523438-4.480469-10-10-10-5.523438 0-10 4.476562-10 10v7.417968h-2.902344c-8.558594 0-15.519531-6.964844-15.519531-15.523437 0-8.558594 6.960937-15.519531 15.519531-15.519531h90.878906c8.558594 0 15.523438 6.960937 15.523438 15.519531 0 8.558593-6.964844 15.523437-15.523438 15.523437zm73.1875-66.566406c0 8.558594-6.964844 15.519531-15.523438 15.519531h-68.632812v-8.460937c0-5.523438-4.476563-10-10-10-5.523438 0-10 4.476562-10 10v8.460937h-2.246094c-8.558594 0-15.519531-6.960937-15.519531-15.519531s6.960937-15.523438 15.519531-15.523438h90.878906c8.558594 0 15.523438 6.964844 15.523438 15.523438zm-314.9375 159.964844h-15.445313v-87.9375c0-5.523438-4.476562-10-10-10-5.519531 0-10 4.476562-10 10v87.9375h-15.441406v-165.996094h50.886719zm50.035156-20.847656h-30.035156v-124.296876h30.035156zm68.203125 17.222656c-3.65625 0-14.789062 0-19.152344-22.628906-.910156-4.703126-5.027344-8.105469-9.820312-8.105469h-19.230469v-100.414063s11.074219.027344 13.054687.050782c21.046876.261718 44.902344.546874 52.332032-36.75.042968-.230469.082031-.464844.113281-.699219l7.988281-63.214844c.007813-.058594.015625-.117187.019532-.175781 1.148437-10.574219 10.039062-18.554688 20.679687-18.554688 5.558594 0 10.78125 2.164063 14.707031 6.089844 3.925782 3.925781 6.089844 9.144531 6.085938 14.699219l-.003906 46.765625c-7.355469 6.511718-12 16.023437-12 26.597656 0 12.808594 6.816406 24.054688 17.011718 30.304688-4.210937 5.839843-6.695312 13.003906-6.695312 20.738281 0 10.007812 4.15625 19.058593 10.839844 25.523437-6.683594 6.460938-10.839844 15.515625-10.839844 25.519532 0 7.734374 2.484375 14.898437 6.695312 20.738281-10.195312 6.25-17.011718 17.496093-17.011718 30.308593 0 1.082032.050781 2.152344.144531 3.207032zm181.175781 12.316406h-68.632812v-8.074219c0-5.523437-4.476563-10-10-10-5.523438 0-10 4.476563-10 10v8.074219h-2.246094c-8.558594 0-15.523437-6.964844-15.523437-15.523438 0-8.558593 6.964843-15.519531 15.523437-15.519531h90.878906c8.558594 0 15.519531 6.960938 15.519531 15.519531.003907 8.558594-6.960937 15.523438-15.519531 15.523438zm0 0"/><path d="m454.066406 10h-378.894531v147.042969h158.703125l30.746094 27.3125 30.742187-27.3125h158.703125zm0 0" fill="#8de3a8"/><path d="m264.621094 194.355469c-2.375 0-4.75-.84375-6.640625-2.527344l-27.90625-24.785156h-154.902344c-5.523437 0-10-4.476563-10-10v-147.042969c0-5.523438 4.476563-10 10-10h378.894531c5.523438 0 10 4.476562 10 10v147.042969c0 5.523437-4.476562 10-10 10h-154.902344l-27.902343 24.785156c-1.894531 1.683594-4.269531 2.527344-6.640625 2.527344zm-179.449219-47.3125h148.703125c2.449219 0 4.8125.898437 6.640625 2.523437l24.105469 21.410156 24.101562-21.410156c1.832032-1.625 4.195313-2.523437 6.640625-2.523437h148.707031v-127.042969h-358.898437zm0 0"/><path d="m264.621094 102.964844-21.761719 9.21875 2.042969-23.546875-15.492188-17.847657 23.023438-5.328124 12.1875-20.25 12.183594 20.25 23.023437 5.328124-15.492187 17.847657 2.042968 23.546875zm0 0" fill="#fcbd38"/><path d="m286.378906 122.183594c-1.320312 0-2.644531-.261719-3.898437-.792969l-17.859375-7.566406-17.859375 7.566406c-3.230469 1.367187-6.941407.941406-9.78125-1.117187-2.835938-2.0625-4.386719-5.460938-4.085938-8.957032l1.679688-19.324218-12.714844-14.644532c-2.300781-2.652344-3.042969-6.3125-1.960937-9.648437 1.085937-3.335938 3.835937-5.859375 7.253906-6.652344l18.898437-4.375 10-16.617187c1.808594-3.007813 5.0625-4.84375 8.570313-4.84375 3.507812 0 6.757812 1.835937 8.566406 4.84375l10.003906 16.617187 18.894532 4.375c3.417968.792969 6.171874 3.316406 7.253906 6.652344 1.085937 3.335937.339844 6.996093-1.957032 9.648437l-12.71875 14.644532 1.679688 19.324218c.300781 3.496094-1.246094 6.894532-4.085938 8.957032-1.734374 1.261718-3.796874 1.910156-5.878906 1.910156zm-38.523437-45.398438 4.597656 5.296875c1.777344 2.046875 2.644531 4.722657 2.410156 7.421875l-.605469 6.988282 6.460938-2.738282c2.492188-1.054687 5.308594-1.054687 7.800781 0l6.460938 2.738282-.605469-6.988282c-.234375-2.699218.636719-5.375 2.410156-7.421875l4.601563-5.296875-6.835938-1.585937c-2.640625-.609375-4.914062-2.265625-6.3125-4.585938l-3.617187-6.011719-3.617188 6.011719c-1.398437 2.320313-3.675781 3.976563-6.3125 4.585938zm0 0"/><path d="m154.367188 102.964844-21.761719 9.21875 2.042969-23.546875-15.492188-17.847657 23.023438-5.328124 12.1875-20.25 12.1875 20.25 23.023437 5.328124-15.492187 17.847657 2.042968 23.546875zm0 0" fill="#fed271"/><path d="m176.128906 122.183594c-1.320312 0-2.648437-.261719-3.902344-.792969l-17.859374-7.566406-17.859376 7.566406c-3.230468 1.367187-6.941406.941406-9.777343-1.117187-2.839844-2.0625-4.390625-5.460938-4.085938-8.957032l1.675781-19.324218-12.714843-14.644532c-2.296875-2.652344-3.042969-6.3125-1.957031-9.648437 1.085937-3.335938 3.835937-5.859375 7.253906-6.652344l18.894531-4.375 10.003906-16.617187c1.808594-3.007813 5.058594-4.84375 8.566407-4.84375 3.507812 0 6.761718 1.835937 8.570312 4.84375l10 16.617187 18.894531 4.375c3.417969.792969 6.171875 3.316406 7.253907 6.652344 1.085937 3.335937.34375 6.996093-1.957032 9.648437l-12.714844 14.644532 1.675782 19.324218c.304687 3.496094-1.246094 6.894532-4.082032 8.957032-1.738281 1.261718-3.800781 1.910156-5.878906 1.910156zm-38.527344-45.398438 4.601563 5.296875c1.773437 2.046875 2.644531 4.722657 2.410156 7.421875l-.605469 6.988282 6.460938-2.738282c2.492188-1.054687 5.308594-1.054687 7.800781 0l6.460938 2.738282-.605469-6.988282c-.234375-2.699218.636719-5.375 2.410156-7.421875l4.601563-5.296875-6.835938-1.585937c-2.640625-.609375-4.917969-2.265625-6.3125-4.585938l-3.617187-6.007812-3.617188 6.007812c-1.398437 2.320313-3.675781 3.976563-6.3125 4.585938zm0 0"/><path d="m374.871094 102.964844-21.757813 9.21875 2.042969-23.546875-15.492188-17.847657 23.023438-5.328124 12.183594-20.25 12.1875 20.25 23.023437 5.328124-15.492187 17.847657 2.042968 23.546875zm0 0" fill="#fed271"/><path d="m396.632812 122.183594c-1.320312 0-2.648437-.261719-3.902343-.792969l-17.859375-7.566406-17.859375 7.566406c-3.230469 1.367187-6.941407.941406-9.777344-1.117187-2.839844-2.0625-4.390625-5.460938-4.085937-8.957032l1.675781-19.324218-12.714844-14.644532c-2.296875-2.652344-3.042969-6.3125-1.957031-9.648437 1.082031-3.335938 3.835937-5.859375 7.253906-6.652344l18.894531-4.375 10.003907-16.617187c1.808593-3.007813 5.058593-4.84375 8.566406-4.84375 3.507812 0 6.757812 1.835937 8.566406 4.84375l10.003906 16.617187 18.894532 4.375c3.417968.792969 6.171874 3.316406 7.253906 6.652344 1.085937 3.335937.339844 6.996093-1.957032 9.648437l-12.714843 14.644532 1.675781 19.324218c.304688 3.496094-1.246094 6.894532-4.082031 8.957032-1.738281 1.261718-3.800781 1.910156-5.878907 1.910156zm-21.761718-29.21875c1.328125 0 2.65625.261718 3.902344.789062l6.460937 2.738282-.605469-6.988282c-.234375-2.699218.632813-5.375 2.410156-7.421875l4.597657-5.300781-6.832031-1.582031c-2.640626-.609375-4.917969-2.265625-6.3125-4.585938l-3.621094-6.011719-3.617188 6.011719c-1.394531 2.320313-3.671875 3.976563-6.308594 4.585938l-6.835937 1.582031 4.601563 5.300781c1.773437 2.046875 2.644531 4.722657 2.410156 7.421875l-.605469 6.988282 6.457031-2.738282c1.246094-.527344 2.574219-.789062 3.898438-.789062zm0 0"/></svg>