<?xml version="1.0" encoding="iso-8859-1"?>
<!-- Generator: Adobe Illustrator 19.0.0, SVG Export Plug-In . SVG Version: 6.00 Build 0)  -->
<svg xmlns="http://www.w3.org/2000/svg" xmlns:xlink="http://www.w3.org/1999/xlink" version="1.1" id="Capa_1" x="0px" y="0px" viewBox="0 0 512 512" style="enable-background:new 0 0 512 512;" xml:space="preserve" width="512" height="512">
<g>
	<g>
		<path style="fill:#5C9CEE;" d="M300.135,20.62h-88.27c-14.268,0-25.835,11.567-25.835,25.835V99.22    c0,13.784,10.796,25.045,24.394,25.793c-4.493,9.514-13.166,16.381-23.302,18.675c4.397,3.568,9.739,6.094,15.718,7.113    c17.835,3.04,34.785-8.376,38.878-25.746h58.416c14.268,0,25.835-11.567,25.835-25.835V46.455    C325.97,32.187,314.403,20.62,300.135,20.62z"/>
		<path style="fill:#3580D3;" d="M300.135,20.62h-21c14.268,0,25.835,11.567,25.835,25.835V99.22    c0,14.268-11.567,25.835-25.835,25.835h21c14.268,0,25.835-11.567,25.835-25.835V46.455    C325.97,32.187,314.403,20.62,300.135,20.62z"/>
		<path style="fill:#9FD479;" d="M211.865,192.462h88.27c14.268,0,25.835,11.567,25.835,25.835v52.765    c0,13.784-10.797,25.045-24.394,25.793c4.493,9.514,13.166,16.381,23.302,18.675c-4.397,3.568-9.739,6.094-15.718,7.113    c-17.835,3.04-34.785-8.376-38.878-25.746h-58.416c-14.268,0-25.835-11.567-25.835-25.835v-52.765    C186.03,204.029,197.597,192.462,211.865,192.462z"/>
		<path style="fill:#7DB24F;" d="M325.97,271.062v-52.765c0-14.268-11.567-25.835-25.835-25.835h-19.781    c14.268,0,25.835,11.567,25.835,25.835v52.765c0,13.784-10.797,25.045-24.394,25.793c4.493,9.514,13.166,16.381,23.302,18.675    c-3.349,2.717-7.248,4.824-11.557,6.128c4.905,1.494,10.22,1.906,15.62,0.985c5.979-1.019,11.322-3.545,15.718-7.113    c-10.136-2.294-18.809-9.161-23.302-18.675C315.173,296.107,325.97,284.846,325.97,271.062z"/>
		<path style="fill:#F9C295;" d="M357.251,177.108v86.311c0,21.671,17.568,39.239,39.239,39.239h25.932v30.948h54.166v-30.948    v-27.719v-97.831H357.251z"/>
		<polygon style="fill:#E59F6A;" points="457.088,177.108 457.088,274.939 457.088,302.658 457.088,333.606 476.589,333.606     476.589,302.658 476.589,274.939 476.589,177.108   "/>
		<path style="fill:#F2DF33;" d="M361.073,133.277l-11.181-4.861c-3.372-1.466-7.141,1.005-7.141,4.682v35.438    c0,23.224,18.827,42.051,42.051,42.051h10.774c3.27,0,5.921,2.651,5.921,5.921v27.696c0,5.331,4.321,9.652,9.652,9.652h0    c5.331,0,9.652-4.321,9.652-9.652v-17.411c0-8.101,6.567-14.667,14.667-14.667h0c8.101,0,14.667,6.567,14.667,14.667v25.676    c0,7.874,6.383,14.257,14.257,14.257h12.197v-88.503c0-22.245-18.033-40.278-40.278-40.278h-52.798    C375.792,137.944,368.154,136.355,361.073,133.277z"/>
		<path style="fill:#D9B92C;" d="M436.31,137.944h-18.668c22.245,0,40.278,18.033,40.278,40.278v86.939    c1.944,0.993,4.139,1.565,6.471,1.565h12.197v-88.503C476.589,155.977,458.555,137.944,436.31,137.944z"/>
		<path style="fill:#5C9CEE;" d="M504.5,491.38H391.001V355.901c0-17.229,13.967-31.195,31.195-31.195h51.108    c17.229,0,31.195,13.967,31.195,31.195V491.38z"/>
		<path style="fill:#3580D3;" d="M473.305,324.705h-18c17.229,0,31.195,13.967,31.195,31.195V491.38h18V355.901    C504.5,338.672,490.533,324.705,473.305,324.705z"/>
		<g>
			<path style="fill:#F9C295;" d="M355.032,427.739l-4.944-14.07c-1.529-4.351-5.638-7.263-10.251-7.263H325.14     c-4.189,0-7.586,3.396-7.586,7.586v5.676h-9.887c-6.321,0-11.446,5.125-11.446,11.446v21.608c0,6.321,5.125,11.446,11.446,11.446     h56.878v-36.428H355.032z"/>
			<path style="fill:#3580D3;" d="M455.341,347.934L455.341,347.934c-10.059,0-18.214,8.155-18.214,18.214v55.677     c0,3.266-2.648,5.913-5.913,5.913h-66.668v36.428h72.581h15.57c11.52,0,20.858-9.338,20.858-20.858v-15.57v-61.59     C473.555,356.089,465.4,347.934,455.341,347.934z"/>
		</g>
		<path style="fill:#F9C295;" d="M154.749,177.108v86.311c0,21.671-17.568,39.239-39.239,39.239H89.577v30.948H35.411v-30.948    v-27.719v-97.831H154.749z"/>
		<g>
			<rect x="68.244" y="302.658" style="fill:#E59F6A;" width="21.333" height="30.948"/>
			<path style="fill:#E59F6A;" d="M133.415,177.108v86.311c0,21.671-17.568,39.239-39.239,39.239h21.333     c21.671,0,39.239-17.568,39.239-39.239v-86.311H133.415z"/>
		</g>
		<path style="fill:#9FD479;" d="M7.5,491.38h113.499V355.901c0-17.229-13.967-31.195-31.195-31.195H38.695    c-17.229,0-31.195,13.967-31.195,31.195V491.38z"/>
		<path style="fill:#7DB24F;" d="M89.803,324.705H70.119c17.229,0,31.195,13.967,31.195,31.195V491.38h19.684V355.901    C120.999,338.672,107.032,324.705,89.803,324.705z"/>
		<g>
			<path style="fill:#F9C295;" d="M156.968,427.739l4.944-14.07c1.529-4.351,5.638-7.263,10.251-7.263h14.698     c4.189,0,7.586,3.396,7.586,7.586v5.676h9.887c6.321,0,11.446,5.125,11.446,11.446v21.608c0,6.321-5.125,11.446-11.446,11.446     h-56.878v-36.428H156.968z"/>
			<path style="fill:#7DB24F;" d="M56.659,347.934L56.659,347.934c10.059,0,18.214,8.155,18.214,18.214v55.677     c0,3.266,2.648,5.913,5.913,5.913h66.668v36.428H74.873h-15.57c-11.52,0-20.858-9.338-20.858-20.858v-15.57v-61.59     C38.445,356.089,46.6,347.934,56.659,347.934z"/>
		</g>
		<path style="fill:#444966;" d="M128.487,137.944h-26.157H75.69c-22.245,0-40.278,18.033-40.278,40.278v88.503h12.197    c7.874,0,14.257-6.383,14.257-14.257v-25.676c0-8.101,6.567-14.667,14.667-14.667S91.2,218.693,91.2,226.793v17.411    c0,5.331,4.321,9.652,9.652,9.652h0c5.331,0,9.652-4.321,9.652-9.652v-27.696c0-3.27,2.651-5.921,5.921-5.921h10.774    c23.224,0,42.051-18.827,42.051-42.051v-30.592H128.487z"/>
		<path style="fill:#2E344C;" d="M143,137.944v30.592c0,23.224-15.134,42.051-33.803,42.051h-8.661c-2.629,0-4.76,2.651-4.76,5.921    v27.696c0,2.51-0.777,4.789-2.039,6.506c1.765,1.929,4.295,3.146,7.115,3.146h0c5.331,0,9.652-4.321,9.652-9.652v-27.696    c0-3.27,2.651-5.921,5.921-5.921h10.774c23.224,0,42.051-18.827,42.051-42.051v-30.592H143z"/>
		<rect x="120.999" y="464.166" style="fill:#D39053;" width="270.002" height="27.214"/>
	</g>
	<g>
		<path d="M198.05,129.567c-3.468,3.332-7.821,5.729-12.583,6.806c-2.802,0.634-4.994,2.812-5.648,5.608    c-0.653,2.797,0.348,5.721,2.578,7.531c5.524,4.482,12.157,7.484,19.185,8.682c2.345,0.399,4.678,0.593,6.985,0.593    c16.945-0.001,32.376-10.435,38.638-26.232h52.931c18.381,0,33.335-14.954,33.335-33.334V46.455    c0-18.381-14.954-33.335-33.335-33.335h-88.27c-18.381,0-33.335,14.954-33.335,33.335v5.718c0,4.142,3.357,7.5,7.5,7.5    s7.5-3.358,7.5-7.5v-5.718c0-10.11,8.225-18.335,18.335-18.335h88.27c10.11,0,18.335,8.225,18.335,18.335V99.22    c0,10.11-8.225,18.334-18.335,18.334h-58.416c-3.479,0-6.502,2.393-7.3,5.78c-3.155,13.388-16.091,22.134-29.651,20.178    c5.262-4.004,9.578-9.24,12.439-15.297c1.065-2.257,0.938-4.897-0.339-7.042c-1.278-2.145-3.539-3.513-6.031-3.65    c-9.705-0.534-17.307-8.573-17.307-18.304V82.168c0-4.142-3.357-7.5-7.5-7.5s-7.5,3.358-7.5,7.5V99.22    C178.53,112.646,186.495,124.302,198.05,129.567z"/>
		<path d="M211.865,304.396h52.931c6.262,15.799,21.69,26.233,38.637,26.232c2.307,0,4.644-0.193,6.986-0.593    c7.025-1.197,13.659-4.2,19.185-8.682c2.23-1.81,3.231-4.734,2.578-7.531c-0.654-2.797-2.848-4.975-5.648-5.608    c-4.762-1.078-9.115-3.474-12.583-6.806c11.555-5.265,19.52-16.921,19.52-30.347v-13.264c0-4.142-3.357-7.5-7.5-7.5    s-7.5,3.358-7.5,7.5v13.264c0,9.73-7.602,17.77-17.307,18.304c-2.492,0.137-4.753,1.505-6.031,3.65    c-1.277,2.145-1.404,4.785-0.338,7.042c2.86,6.058,7.176,11.292,12.438,15.297c-13.553,1.963-26.495-6.79-29.65-20.178    c-0.798-3.387-3.82-5.78-7.3-5.78h-58.416c-10.11,0-18.335-8.225-18.335-18.334v-52.765c0-10.11,8.225-18.335,18.335-18.335h88.27    c10.11,0,18.335,8.225,18.335,18.335v9.5c0,4.142,3.357,7.5,7.5,7.5s7.5-3.358,7.5-7.5v-9.5c0-18.381-14.954-33.335-33.335-33.335    h-88.27c-18.381,0-33.335,14.954-33.335,33.335v52.765C178.53,289.443,193.484,304.396,211.865,304.396z"/>
		<path d="M484.09,318.746v-52.023v-88.5v-1.12c0-0.268-0.015-0.533-0.043-0.794c-0.487-12.263-5.575-23.717-14.387-32.305    c-8.972-8.745-20.815-13.561-33.35-13.561H383.51c-6.731,0-13.274-1.362-19.449-4.048l-11.189-4.863    c-3.912-1.694-8.372-1.309-11.936,1.031c-3.56,2.337-5.686,6.274-5.686,10.53v35.44c0,13.18,5.253,25.74,14.5,34.995v59.895    c0,25.767,20.968,46.73,46.74,46.73h18.43v7.748c-17.869,3.415-31.419,19.151-31.419,38v41.775c0,4.142,3.357,7.5,7.5,7.5    s7.5-3.358,7.5-7.5v-41.775c0-13.066,10.63-23.696,23.695-23.696h51.108c13.065,0,23.695,10.63,23.695,23.696V483.88h-98.499    v-12.214h54.196c15.637,0,28.357-12.721,28.357-28.358v-77.16c0-14.178-11.535-25.713-25.714-25.713s-25.714,11.535-25.714,25.713    v54.09h-65.081c-0.003,0-0.006,0-0.01,0h-4.189l-3.183-9.057c-2.58-7.343-9.543-12.276-17.326-12.276h-14.697    c-7.701,0-14.073,5.8-14.977,13.261h-2.497c-10.446,0-18.945,8.499-18.945,18.946v21.608c0,1.354,0.149,2.672,0.42,3.946h-66.283    c0.271-1.274,0.42-2.592,0.42-3.946v-21.608c0-10.447-8.499-18.946-18.945-18.946h-2.497c-0.903-7.461-7.275-13.261-14.977-13.261    h-14.697c-7.783,0-14.746,4.934-17.327,12.277l-3.182,9.056h-4.189c-0.003,0-0.006,0-0.01,0H82.373v-54.09    c0-14.178-11.535-25.713-25.714-25.713s-25.714,11.535-25.714,25.713v77.16c0,15.637,12.721,28.358,28.357,28.358h54.196v12.214    H15V355.901c0-13.066,10.63-23.696,23.695-23.696h51.108c13.065,0,23.695,10.63,23.695,23.696v41.943c0,4.142,3.357,7.5,7.5,7.5    s7.5-3.358,7.5-7.5v-41.943c0-18.849-13.55-34.585-31.419-38v-7.748h18.43c25.772,0,46.74-20.963,46.74-46.73v-59.895    c9.248-9.258,14.5-21.816,14.5-34.995v-30.59c0-4.142-3.357-7.5-7.5-7.5H75.689c-12.534,0-24.378,4.816-33.35,13.561    c-8.811,8.588-13.899,20.041-14.387,32.304c-0.028,0.262-0.043,0.527-0.043,0.796v1.12c0,0.064,0.008,0.127,0.01,0.191    l-0.01,88.309v52.023C11.807,323.428,0,338.307,0,355.901V491.38c0,4.142,3.357,7.5,7.5,7.5h113.499h270.002H504.5    c4.143,0,7.5-3.358,7.5-7.5V355.901C512,338.307,500.193,323.428,484.09,318.746z M350.25,136.748l7.828,3.403    c8.073,3.512,16.629,5.292,25.432,5.292h52.801c17.865,0,32.249,13.968,32.771,31.812l0.009,81.968h-4.699    c-3.495,0-6.379-2.661-6.726-6.061c-0.023-0.227-0.035-0.457-0.035-0.689v-25.68c0-5.925-2.304-11.491-6.486-15.673    c-4.189-4.189-9.756-6.497-15.674-6.497c-12.225,0-22.17,9.945-22.17,22.17v17.41c0,0.733-0.336,1.221-0.649,1.533    c-0.28,0.282-0.768,0.617-1.5,0.617c-1.186,0-2.15-0.964-2.15-2.15v-27.7c0-7.4-6.024-13.42-13.43-13.42H384.8    c-1.56,0-3.11-0.106-4.64-0.313c-6.631-0.899-12.894-3.712-17.996-8.143c-7.571-6.566-11.914-16.078-11.914-26.094V136.748z     M396.49,295.153c-17.502,0-31.74-14.234-31.74-31.73v-49.579c0.101,0.045,0.205,0.082,0.307,0.126    c0.493,0.215,0.992,0.416,1.492,0.615c0.245,0.097,0.489,0.2,0.735,0.294c0.745,0.281,1.494,0.548,2.252,0.794    c0.011,0.004,0.023,0.007,0.034,0.011c0.754,0.244,1.514,0.466,2.28,0.673c0.253,0.068,0.509,0.127,0.763,0.192    c0.526,0.133,1.052,0.263,1.583,0.379c0.298,0.065,0.598,0.124,0.898,0.184c0.495,0.099,0.991,0.192,1.489,0.276    c0.311,0.052,0.623,0.102,0.936,0.148c0.5,0.074,1.002,0.139,1.505,0.198c0.305,0.036,0.609,0.073,0.915,0.103    c0.545,0.054,1.091,0.094,1.638,0.129c0.263,0.017,0.525,0.04,0.789,0.053c0.809,0.04,1.62,0.064,2.434,0.064h9.2v26.12    c0,9.457,7.693,17.15,17.15,17.15c4.596,0,8.907-1.791,12.107-5.012c3.252-3.233,5.042-7.544,5.042-12.138v-17.41    c0-3.954,3.217-7.17,7.17-7.17c1.911,0,3.711,0.747,5.067,2.104c1.35,1.35,2.093,3.149,2.093,5.066v25.68    c0,3.748,0.953,7.277,2.63,10.359c3.689,6.779,10.881,11.391,19.129,11.391h0.001h4.699v42.982h-39.17v-14.552    c0-4.142-3.357-7.5-7.5-7.5H396.49z M147.25,263.423c0,17.496-14.238,31.73-31.74,31.73H89.58c-4.143,0-7.5,3.358-7.5,7.5v14.552    H42.91v-42.982h4.7c11.998,0,21.76-9.757,21.76-21.75v-25.68c0-3.954,3.212-7.17,7.16-7.17c3.953,0,7.17,3.216,7.17,7.17v17.41    c0,9.457,7.693,17.15,17.149,17.15c4.595,0,8.905-1.791,12.108-5.012c3.252-3.233,5.042-7.544,5.042-12.138v-26.12h9.2    c0.814,0,1.625-0.024,2.434-0.064c0.264-0.013,0.526-0.036,0.789-0.053c0.547-0.036,1.094-0.076,1.638-0.129    c0.306-0.03,0.611-0.068,0.916-0.103c0.503-0.059,1.005-0.124,1.505-0.198c0.312-0.046,0.623-0.096,0.934-0.148    c0.5-0.084,0.997-0.177,1.493-0.277c0.299-0.06,0.597-0.118,0.895-0.183c0.533-0.117,1.063-0.247,1.591-0.381    c0.251-0.064,0.503-0.121,0.752-0.189c1.549-0.419,3.076-0.914,4.575-1.481c0.235-0.089,0.467-0.187,0.701-0.28    c0.513-0.203,1.024-0.41,1.531-0.631c0.098-0.043,0.198-0.079,0.296-0.122V263.423z M75.689,145.443h86.061v23.09    c0,10.017-4.343,19.527-11.918,26.098c-6.275,5.45-14.313,8.452-22.632,8.452H116.43c-7.405,0-13.43,6.02-13.43,13.42v27.7    c0,0.733-0.336,1.221-0.648,1.531c-0.28,0.282-0.769,0.619-1.502,0.619c-1.186,0-2.149-0.964-2.149-2.15v-17.41    c0-12.225-9.945-22.17-22.17-22.17c-12.219,0-22.16,9.945-22.16,22.17v25.68c0,3.722-3.032,6.75-6.76,6.75h-4.7v-81l0.009-0.968    C43.44,159.412,57.824,145.443,75.689,145.443z M431.214,435.238c7.396,0,13.413-6.017,13.413-13.413v-55.677    c0-5.907,4.807-10.713,10.714-10.713s10.714,4.806,10.714,10.713v77.16c0,7.366-5.992,13.358-13.357,13.358h-61.696h-18.955    v-21.428H431.214z M303.722,452.72v-21.608c0-2.176,1.77-3.946,3.945-3.946h9.888c4.143,0,7.5-3.358,7.5-7.5v-5.676    c0-0.047,0.038-0.085,0.086-0.085h14.697c1.426,0,2.702,0.904,3.175,2.249l4.943,14.07c1.056,3.004,3.893,5.014,7.076,5.014h2.014    v21.427h-49.379C305.491,456.666,303.722,454.896,303.722,452.72z M164.044,430.225l4.943-14.069    c0.473-1.346,1.749-2.25,3.175-2.25h14.697c0.048,0,0.086,0.039,0.086,0.085v5.676c0,4.142,3.357,7.5,7.5,7.5h9.888    c2.176,0,3.945,1.77,3.945,3.946v21.608c0,2.176-1.77,3.946-3.945,3.946h-49.379v-21.427h2.014    C160.151,435.239,162.988,433.229,164.044,430.225z M45.945,443.308v-77.16c0-5.907,4.807-10.713,10.714-10.713    s10.714,4.806,10.714,10.713v55.677c0,7.396,6.017,13.413,13.413,13.413h59.168v21.428h-18.955H59.303    C51.938,456.666,45.945,450.674,45.945,443.308z M128.499,471.666h18.955h56.879h103.334h56.879h18.955v12.214H128.499V471.666z"/>
	</g>
</g>















</svg>
