<?xml version="1.0" encoding="iso-8859-1"?>
<!-- Generator: Adobe Illustrator 19.0.0, SVG Export Plug-In . SVG Version: 6.00 Build 0)  -->
<svg version="1.1" id="Capa_1" xmlns="http://www.w3.org/2000/svg" xmlns:xlink="http://www.w3.org/1999/xlink" x="0px" y="0px"
	 viewBox="0 0 480 480" style="enable-background:new 0 0 480 480;" xml:space="preserve">
<rect x="136" y="48" style="fill:#FFBE00;" width="208" height="352"/>
<path style="fill:#DEDFE3;" d="M120,176H24c-8.837,0-16-7.163-16-16V64c0-8.837,7.163-16,16-16h96c8.837,0,16,7.163,16,16v96
	C136,168.837,128.837,176,120,176z"/>
<path style="fill:#3F708D;" d="M288,224h-96c-8.837,0-16-7.163-16-16v-96c0-8.837,7.163-16,16-16h96c8.837,0,16,7.163,16,16v96
	C304,216.837,296.837,224,288,224z"/>
<path style="fill:#2F9BD7;" d="M40,91.2l2.791,1.881c9.014,6.076,19.606,9.319,30.44,9.319h0V94c0-7.732,6.199-14,13.846-14h0
	c7.647,0,13.846,6.268,13.846,14L112,102.4l-11.077,11.2v0c0,12.371-9.919,22.4-22.154,22.4H40l11.077-11.2l0,0
	C43.984,117.629,40,107.902,40,97.761V91.2z"/>
<g>
	<path style="fill:#DEDFE3;" d="M264,136v-16h-24c-4.422,0-8,3.582-8,8v24h-16v16h16v32h16v-32h16v-16h-16v-16H264z"/>
	<path style="fill:#DEDFE3;" d="M408,104c-17.673,0-32-14.327-32-32h-32v48c0,8.836,7.164,16,16,16h96c8.836,0,16-7.164,16-16V72
		h-32C440,89.673,425.673,104,408,104z"/>
</g>
<path style="fill:#E7343A;" d="M456,8h-96c-8.836,0-16,7.163-16,16v48h32c0-17.673,14.327-32,32-32s32,14.327,32,32h32V24
	C472,15.163,464.836,8,456,8z"/>
<g>
	<circle style="fill:#E7F6FE;" cx="408" cy="72" r="32"/>
	<rect x="232" y="328" style="fill:#E7F6FE;" width="16" height="16"/>
</g>
<path style="fill:#FFB398;" d="M168,440c22.091,0,40-17.909,40-40v-8c0-35.346-28.654-64-64-64h24c22.091,0,40-17.909,40-40h-80
	c-8.836,0-16,7.163-16,16v176h128v-40H168z"/>
<path style="fill:#FE946F;" d="M208,400c0,22.091-17.909,40-40,40h72v40h48v-40h16v-40H208z"/>
<g>
	<path style="fill:#FFB398;" d="M368,320h-52c-11.046,0-20-8.954-20-20v0c0-11.046,8.954-20,20-20h52c11.046,0,20,8.954,20,20v0
		C388,311.046,379.046,320,368,320z"/>
	<path style="fill:#FFB398;" d="M368,360h-52c-11.046,0-20-8.954-20-20v0c0-11.046,8.954-20,20-20h52c11.046,0,20,8.954,20,20v0
		C388,351.046,379.046,360,368,360z"/>
	<path style="fill:#FFB398;" d="M356,400h-52c-11.046,0-20-8.954-20-20v0c0-11.046,8.954-20,20-20h52c11.046,0,20,8.954,20,20v0
		C376,391.046,367.046,400,356,400z"/>
	<path style="fill:#FFB398;" d="M332,440h-52c-11.046,0-20-8.954-20-20v0c0-11.046,8.954-20,20-20h52c11.046,0,20,8.954,20,20v0
		C352,431.046,343.046,440,332,440z"/>
</g>
<rect x="160" y="40" width="160" height="16"/>
<path d="M396,300c0-15.438-12.563-28-28-28h-16V160h-16v112h-20c-15.438,0-28,12.563-28,28c0,7.838,3.258,14.912,8.466,20
	c-5.208,5.088-8.466,12.162-8.466,20c0,5.393,1.605,10.39,4.259,14.668C282.689,359.125,276,368.768,276,380
	c0,4.311,1.061,8.349,2.809,12H216c0-24.461-12.258-46.109-30.953-59.125C203.125,325.984,216,308.469,216,288c0-4.418-3.578-8-8-8
	h-64v-80h-16v80c-13.234,0-24,10.766-24,24v176h16V304c0-4.41,3.586-8,8-8h70.984c-3.555,13.785-16.102,24-30.984,24h-24
	c-4.422,0-8,3.582-8,8s3.578,8,8,8c30.875,0,56,25.121,56,56v8c0,4.418,3.578,8,8,8h46.809c-1.748,3.651-2.809,7.689-2.809,12
	c0,15.438,12.563,28,28,28v32h16v-32h32h4c15.438,0,28-12.563,28-28c0-4.357-1.087-8.433-2.871-12.114
	C372.034,407.278,384,395.051,384,380c0-5.393-1.605-10.39-4.259-14.668C389.311,360.875,396,351.232,396,340
	c0-7.838-3.258-14.912-8.466-20C392.742,314.912,396,307.838,396,300z M332,432h-4h-40h-8c-6.617,0-12-5.383-12-12s5.383-12,12-12
	h24h28c6.617,0,12,5.383,12,12S338.617,432,332,432z M356,392h-24h-28c-6.617,0-12-5.383-12-12s5.383-12,12-12h12h40
	c6.617,0,12,5.383,12,12S362.617,392,356,392z M380,340c0,6.617-5.383,12-12,12h-12h-40c-6.617,0-12-5.383-12-12s5.383-12,12-12h52
	C374.617,328,380,333.383,380,340z M316,312c-6.617,0-12-5.383-12-12s5.383-12,12-12h52c6.617,0,12,5.383,12,12s-5.383,12-12,12H316
	z"/>
<path d="M108.508,89.711C106.516,79.625,97.664,72,87.078,72c-11.945,0-21.688,9.711-21.844,21.707
	c-6.391-1.117-12.5-3.57-17.969-7.254l-2.789-1.883c-2.445-1.652-5.617-1.832-8.234-0.434C33.633,85.523,32,88.242,32,91.199v6.563
	c0,9.641,2.906,18.836,8.297,26.559l-5.984,6.055c-2.273,2.293-2.938,5.727-1.695,8.707C33.859,142.059,36.773,144,40,144h38.766
	c15.461,0,28.242-11.785,29.961-26.91l8.961-9.066c1.617-1.637,2.453-3.895,2.289-6.195c-0.164-2.297-1.305-4.414-3.141-5.805
	L108.508,89.711z M95.234,107.977c-1.484,1.496-2.313,3.52-2.313,5.625c0,7.938-6.352,14.398-14.156,14.398H58.414
	c1.266-2.914,0.719-6.43-1.648-8.824c-3.734-3.781-6.406-8.539-7.758-13.668c7.633,3.219,15.836,4.891,24.227,4.891
	c4.422,0,8-3.582,8-8V94c0-3.309,2.625-6,5.844-6s5.844,2.691,5.844,6c0,2.504,1.172,4.863,3.164,6.375l3.813,2.887L95.234,107.977z
	"/>
<path d="M232,128v24h-16v16h16v32h16v-32h16v-16h-16v-16h16v-16h-24C235.578,120,232,123.582,232,128z"/>
<path d="M312,208v-96c0-13.234-10.766-24-24-24h-96c-13.234,0-24,10.766-24,24v96c0,13.234,10.766,24,24,24h96
	C301.234,232,312,221.234,312,208z M184,208v-96c0-4.41,3.586-8,8-8h96c4.414,0,8,3.59,8,8v96c0,4.41-3.586,8-8,8h-96
	C187.586,216,184,212.41,184,208z"/>
<path d="M144,160V64c0-13.234-10.766-24-24-24H24C10.766,40,0,50.766,0,64v96c0,13.234,10.766,24,24,24h96
	C133.234,184,144,173.234,144,160z M16,160V64c0-4.41,3.586-8,8-8h96c4.414,0,8,3.59,8,8v96c0,4.41-3.586,8-8,8H24
	C19.586,168,16,164.41,16,160z"/>
<path d="M456,0h-96c-13.234,0-24,10.766-24,24v96c0,13.234,10.766,24,24,24h96c13.234,0,24-10.766,24-24V24
	C480,10.766,469.234,0,456,0z M360,16h96c4.414,0,8,3.59,8,8v40h-16.809C443.474,45.766,427.315,32,408,32s-35.474,13.766-39.191,32
	H352V24C352,19.59,355.586,16,360,16z M432,72c0,13.234-10.766,24-24,24s-24-10.766-24-24s10.766-24,24-24S432,58.766,432,72z
	 M456,128h-96c-4.414,0-8-3.59-8-8V80h16.809c3.717,18.234,19.876,32,39.191,32s35.474-13.766,39.191-32H464v40
	C464,124.41,460.414,128,456,128z"/>
<rect x="232" y="328" width="16" height="16"/>
<g>
</g>
<g>
</g>
<g>
</g>
<g>
</g>
<g>
</g>
<g>
</g>
<g>
</g>
<g>
</g>
<g>
</g>
<g>
</g>
<g>
</g>
<g>
</g>
<g>
</g>
<g>
</g>
<g>
</g>
</svg>
