<svg height="511pt" viewBox="1 -36 511.999 511" width="511pt" xmlns="http://www.w3.org/2000/svg"><path d="m470.144531 8h-428.289062c-18.972657 0-34.355469 15.378906-34.355469 34.355469v354.695312c0 18.972657 15.382812 34.355469 34.355469 34.355469h428.289062c18.972657 0 34.355469-15.382812 34.355469-34.355469v-354.695312c0-18.976563-15.382812-34.355469-34.355469-34.355469zm0 0" fill="#494a59"/><path d="m97.5 397.050781v-354.695312c0-18.976563 15.382812-34.355469 34.355469-34.355469h-90c-18.972657 0-34.355469 15.378906-34.355469 34.355469v354.695312c0 18.972657 15.382812 34.355469 34.355469 34.355469h90c-18.972657 0-34.355469-15.382812-34.355469-34.355469zm0 0" fill="#3f404d"/><path d="m65.730469 64.703125h380.542969v310h-380.542969zm0 0" fill="#b6d97a"/><path d="m355 219.703125c0 54.675781-44.324219 99-99 99s-99-44.324219-99-99 44.324219-99 99-99 99 44.324219 99 99zm0 0" fill="#fc595a"/><path d="m187 219.703125c0-49.578125 36.441406-90.644531 84-97.871094-4.890625-.742187-9.902344-1.128906-15-1.128906-54.675781 0-99 44.324219-99 99s44.324219 99 99 99c5.097656 0 10.109375-.386719 15-1.128906-47.558594-7.230469-84-48.292969-84-97.871094zm0 0" fill="#d94244"/><path d="m296.558594 210.570312-47.632813-35.160156c-7.496093-5.535156-18.097656-.183594-18.097656 9.132813v70.320312c0 9.3125 10.601563 14.664063 18.097656 9.132813l47.632813-35.160156c6.148437-4.539063 6.148437-13.730469 0-18.265626zm0 0" fill="#ecebed"/><path d="m65.730469 64.703125h31.769531v310h-31.769531zm0 0" fill="#9fcc52"/><path d="m207.191406 38.296875v-10.191406c0-4.144531-3.359375-7.5-7.5-7.5s-7.5 3.355469-7.5 7.5v10.191406c0 4.140625 3.359375 7.5 7.5 7.5s7.5-3.359375 7.5-7.5zm0 0"/><path d="m319.808594 38.296875v-10.191406c0-4.144531-3.355469-7.5-7.5-7.5-4.140625 0-7.5 3.355469-7.5 7.5v10.191406c0 4.140625 3.359375 7.5 7.5 7.5 4.144531 0 7.5-3.359375 7.5-7.5zm0 0"/><path d="m256 51.234375c7.582031 0 14.703125-3.175781 19.542969-8.710937 2.726562-3.117188 2.410156-7.855469-.707031-10.582032-3.121094-2.726562-7.859376-2.410156-10.585938.710938-1.992188 2.277344-5 3.582031-8.25 3.582031-3.253906 0-6.261719-1.304687-8.25-3.582031-2.726562-3.121094-7.464844-3.4375-10.585938-.710938-3.117187 2.722656-3.4375 7.460938-.710937 10.582032 4.84375 5.535156 11.964844 8.710937 19.546875 8.710937zm0 0"/><path d="m470.144531.5h-428.289062c-23.078125 0-41.855469 18.777344-41.855469 41.855469v354.695312c0 23.078125 18.777344 41.855469 41.855469 41.855469h334.398437c4.140625 0 7.5-3.359375 7.5-7.5 0-4.144531-3.359375-7.5-7.5-7.5h-334.398437c-14.808594 0-26.855469-12.046875-26.855469-26.855469v-354.695312c0-14.808594 12.046875-26.855469 26.855469-26.855469h428.289062c14.808594 0 26.855469 12.046875 26.855469 26.855469v354.695312c0 14.808594-12.046875 26.855469-26.855469 26.855469h-63.890625c-4.144531 0-7.5 3.355469-7.5 7.5 0 4.140625 3.355469 7.5 7.5 7.5h63.890625c23.078125 0 41.855469-18.777344 41.855469-41.855469v-354.695312c0-23.078125-18.777344-41.855469-41.855469-41.855469zm0 0"/><path d="m453.769531 374.703125v-310c0-4.144531-3.355469-7.5-7.5-7.5h-311.347656c-4.144531 0-7.5 3.355469-7.5 7.5 0 4.140625 3.355469 7.5 7.5 7.5h303.851563v295h-365.542969v-295h31.691406c4.140625 0 7.5-3.359375 7.5-7.5 0-4.144531-3.359375-7.5-7.5-7.5h-39.191406c-4.144531 0-7.5 3.355469-7.5 7.5v310c0 4.140625 3.355469 7.5 7.5 7.5h380.542969c4.140624 0 7.496093-3.359375 7.496093-7.5zm0 0"/><path d="m265.980469 403.054688c0 5.511718-4.46875 9.980468-9.980469 9.980468s-9.980469-4.46875-9.980469-9.980468c0-5.515626 4.46875-9.984376 9.980469-9.984376s9.980469 4.46875 9.980469 9.984376zm0 0"/><path d="m362.5 219.703125c0-58.726563-47.777344-106.5-106.5-106.5s-106.5 47.773437-106.5 106.5c0 58.722656 47.777344 106.5 106.5 106.5s106.5-47.777344 106.5-106.5zm-198 0c0-50.453125 41.046875-91.5 91.5-91.5s91.5 41.046875 91.5 91.5-41.046875 91.5-91.5 91.5-91.5-41.046875-91.5-91.5zm0 0"/><path d="m308.671875 219.703125c0-6.046875-2.792969-11.578125-7.65625-15.167969 0 0-47.617187-35.148437-47.636719-35.160156-12.238281-9.03125-30.050781.003906-30.050781 15.167969v70.320312c0 15.128907 17.886719 24.144531 30.050781 15.167969l47.636719-35.160156c4.867187-3.59375 7.65625-9.121094 7.65625-15.167969zm-16.566406 3.097656s-47.578125 35.121094-47.636719 35.160157c-2.421875 1.789062-6.140625.109374-6.140625-3.097657 0 0 0-70.171875 0-70.320312 0-3.117188 3.652344-4.941407 6.140625-3.101563 0 0 47.636719 35.160156 47.636719 35.160156 2.070312 1.527344 2.058593 4.683594 0 6.199219zm0 0"/></svg>