<?xml version="1.0" encoding="iso-8859-1"?>
<!-- Generator: Adobe Illustrator 21.0.0, SVG Export Plug-In . SVG Version: 6.00 Build 0)  -->
<svg xmlns="http://www.w3.org/2000/svg" xmlns:xlink="http://www.w3.org/1999/xlink" version="1.1" id="Capa_1" x="0px" y="0px" viewBox="0 0 512 512" style="enable-background:new 0 0 512 512;" xml:space="preserve" width="512" height="512">
<g>
	<path style="fill:#D8D5ED;" d="M439.5,512h-367c-2.209,0-4-1.791-4-4V4c0-2.209,1.791-4,4-4h367c2.209,0,4,1.791,4,4v504   C443.5,510.209,441.709,512,439.5,512z"/>
	<path style="fill:#BEBADE;" d="M412.593,0v512H439.5c2.209,0,4-1.791,4-4V4c0-2.209-1.791-4-4-4H412.593z"/>
	<path style="fill:#50536E;" d="M443.5,82.414h-375V4c0-2.209,1.791-4,4-4h367c2.209,0,4,1.791,4,4V82.414z"/>
	<path style="fill:#484B63;" d="M443.5,82.414h-30.907V0H439.5c2.209,0,4,1.791,4,4V82.414z"/>
	<g>
		<circle style="fill:#FF2C5C;" cx="115.895" cy="40.692" r="15.453"/>
		<circle style="fill:#FFD659;" cx="177.706" cy="40.692" r="15.453"/>
		<circle style="fill:#4FC6F5;" cx="239.517" cy="40.692" r="15.453"/>
	</g>
	<g>
		<path style="fill:#FFD659;" d="M161.957,143.929l8.095,16.261c0.872,1.752,2.558,2.967,4.509,3.248l18.101,2.608    c4.911,0.708,6.873,6.692,3.319,10.126l-13.098,12.658c-1.411,1.364-2.055,3.329-1.722,5.255l3.092,17.873    c0.839,4.85-4.295,8.548-8.688,6.258l-16.19-8.438c-1.744-0.909-3.828-0.909-5.573,0l-16.19,8.438    c-4.393,2.29-9.527-1.409-8.688-6.258l3.092-17.873c0.333-1.926-0.311-3.891-1.722-5.255l-13.098-12.658    c-3.554-3.435-1.593-9.419,3.319-10.126l18.101-2.608c1.95-0.281,3.636-1.495,4.509-3.248l8.095-16.261    C153.414,139.517,159.761,139.517,161.957,143.929z"/>
		<path style="fill:#FFBD54;" d="M182.878,188.83c-1.411,1.36-2.05,3.327-1.72,5.254l3.091,17.873    c0.845,4.852-4.296,8.55-8.684,6.263l-2.338-1.226c-1.143-31.635-15.968-43.451-23.159-70.75l1.154-2.318    c2.194-4.409,8.54-4.409,10.734,0l8.097,16.266c0.876,1.751,2.555,2.967,4.512,3.245l18.1,2.606    c4.904,0.711,6.871,6.696,3.317,10.126L182.878,188.83z"/>
	</g>
	<g>
		<path style="fill:#FFD659;" d="M360.782,143.929l8.095,16.261c0.872,1.752,2.558,2.967,4.509,3.248l18.101,2.608    c4.911,0.708,6.873,6.692,3.319,10.126l-13.098,12.658c-1.411,1.364-2.055,3.329-1.722,5.255l3.092,17.873    c0.839,4.85-4.295,8.548-8.688,6.258l-16.19-8.438c-1.744-0.909-3.828-0.909-5.573,0l-16.19,8.438    c-4.393,2.29-9.527-1.409-8.688-6.258l3.092-17.873c0.333-1.926-0.311-3.891-1.722-5.255l-13.098-12.658    c-3.554-3.435-1.593-9.419,3.319-10.126l18.101-2.608c1.95-0.281,3.636-1.495,4.509-3.248l8.095-16.261    C352.239,139.517,358.586,139.517,360.782,143.929z"/>
		<path style="fill:#FFBD54;" d="M381.703,188.83c-1.411,1.36-2.05,3.327-1.72,5.254l3.091,17.873    c0.845,4.852-4.296,8.55-8.684,6.263l-2.338-1.226c-1.143-31.635-15.968-43.451-23.159-70.75l1.154-2.318    c2.194-4.409,8.54-4.409,10.734,0l8.097,16.266c0.875,1.751,2.555,2.967,4.512,3.245l18.1,2.606    c4.904,0.711,6.871,6.696,3.317,10.126L381.703,188.83z"/>
	</g>
	<g>
		<path style="fill:#FFD659;" d="M261.37,110.963l8.095,16.261c0.872,1.752,2.558,2.967,4.509,3.248l18.101,2.608    c4.911,0.708,6.873,6.692,3.319,10.126l-13.098,12.658c-1.411,1.364-2.055,3.329-1.722,5.255l3.092,17.873    c0.839,4.85-4.295,8.548-8.688,6.258l-16.19-8.438c-1.744-0.909-3.828-0.909-5.573,0l-16.19,8.438    c-4.393,2.29-9.527-1.409-8.688-6.258l3.092-17.873c0.333-1.926-0.311-3.891-1.722-5.255l-13.098-12.658    c-3.554-3.435-1.593-9.419,3.319-10.126l18.101-2.608c1.95-0.281,3.636-1.495,4.509-3.248l8.095-16.261    C252.827,106.551,259.173,106.551,261.37,110.963z"/>
		<path style="fill:#FFBD54;" d="M282.29,155.864c-1.411,1.36-2.05,3.327-1.72,5.254l3.091,17.873    c0.845,4.852-4.296,8.55-8.684,6.263l-2.338-1.226c-1.143-31.635-15.968-43.451-23.159-70.75l1.154-2.318    c2.194-4.409,8.54-4.409,10.734,0l8.097,16.266c0.875,1.751,2.555,2.967,4.512,3.245l18.1,2.606    c4.904,0.711,6.871,6.696,3.317,10.126L282.29,155.864z"/>
	</g>
	<g>
		<path style="fill:#EBAD88;" d="M251.034,303.801L251.034,303.801c-1.695-1.322-2.976-3.123-3.696-5.185    c-2.096-6.008-7.233-19.562-14.347-30.41c-3.767-5.739-5.689-12.556-5.689-19.487V237.9c0-2.665-2.096-4.825-4.681-4.825h-5.094    c-6.84,0-14.274,5.773-14.274,21.474v26.169c0,8.282-10.7,14.992-18.735,14.992l-36.466,0.069    c-6.029,0-10.916,5.038-10.916,11.252v0c0,5.062,3.243,9.344,7.705,10.757c0.568,0.18,0.573,0.965-0.001,1.124    c-3.844,1.058-9.769,3.796-9.769,10.623l0,0c0,5.254,3.494,9.667,8.217,10.905c0.693,0.182,0.83,1.111,0.225,1.489    c-2.252,1.407-5.227,4.355-5.227,10.11l0,0c0,6.214,4.887,11.252,10.916,11.252h5.101c1.332,0,2.125,1.51,1.305,2.543    c-1.18,1.486-2.243,3.721-2.243,6.948v0c0,2.851,1.038,4.898,2.335,6.343c1.857,2.07,4.608,3.147,7.414,3.147l23.693,0.001v-0.001    h59.369c5.426,0,9.824-4.534,9.824-10.126v-58.049C256,310.051,254.162,306.241,251.034,303.801z"/>
		<path style="fill:#FF2C5C;" d="M372.928,378.153H269.502v-72.125h103.426c2.209,0,4,1.791,4,4v64.125    C376.928,376.362,375.137,378.153,372.928,378.153z"/>
		<path style="fill:#E62753;" d="M346.023,306.029v72.124h26.905c2.209,0,4-1.791,4-4v-64.124c0-2.209-1.791-4-4-4H346.023z"/>
		<path style="fill:#4FC6F5;" d="M281.048,383.489h-23.092c-2.158,0-3.907-1.749-3.907-3.907v-76.661    c0-2.158,1.749-3.907,3.907-3.907h23.092c2.158,0,3.907,1.749,3.907,3.907v76.661C284.955,381.74,283.206,383.489,281.048,383.489    z"/>
	</g>
	<g>
		<path style="fill:#50536E;" d="M369.32,422.601H142.68c-4.143,0-7.5,3.358-7.5,7.5s3.357,7.5,7.5,7.5H369.32    c4.143,0,7.5-3.358,7.5-7.5S373.463,422.601,369.32,422.601z"/>
		<path style="fill:#50536E;" d="M200.453,456.94H142.68c-4.143,0-7.5,3.358-7.5,7.5s3.357,7.5,7.5,7.5h57.773    c4.143,0,7.5-3.358,7.5-7.5S204.596,456.94,200.453,456.94z"/>
	</g>
</g>















</svg>
