<?xml version="1.0" encoding="iso-8859-1"?>
<!-- Generator: Adobe Illustrator 19.0.0, SVG Export Plug-In . SVG Version: 6.00 Build 0)  -->
<svg version="1.1" id="Capa_1" xmlns="http://www.w3.org/2000/svg" xmlns:xlink="http://www.w3.org/1999/xlink" x="0px" y="0px"
	 viewBox="0 0 512 512" style="enable-background:new 0 0 512 512;" xml:space="preserve">
<path style="fill:#5C9CEE;" d="M300.135,16.87h-88.27c-14.268,0-25.835,11.567-25.835,25.835V95.47
	c0,13.784,10.796,25.045,24.394,25.793c-4.493,9.514-13.166,16.381-23.302,18.675c4.397,3.568,9.739,6.094,15.718,7.113
	c17.835,3.04,34.785-8.376,38.878-25.746h58.416c14.268,0,25.835-11.567,25.835-25.835V42.705
	C325.97,28.437,314.403,16.87,300.135,16.87z"/>
<path style="fill:#3580D3;" d="M300.135,16.87h-21c14.268,0,25.835,11.567,25.835,25.835V95.47
	c0,14.268-11.567,25.835-25.835,25.835h21c14.268,0,25.835-11.567,25.835-25.835V42.705C325.97,28.437,314.403,16.87,300.135,16.87z
	"/>
<path style="fill:#9FD479;" d="M211.865,188.712h88.27c14.268,0,25.835,11.567,25.835,25.835v52.765
	c0,13.784-10.797,25.045-24.394,25.793c4.493,9.514,13.166,16.381,23.302,18.675c-4.397,3.568-9.739,6.094-15.718,7.113
	c-17.835,3.04-34.785-8.376-38.878-25.746h-58.416c-14.268,0-25.835-11.567-25.835-25.835v-52.765
	C186.03,200.278,197.597,188.712,211.865,188.712z"/>
<path style="fill:#F9C295;" d="M357.251,173.358v86.311c0,21.671,17.568,39.239,39.239,39.239h25.932v30.948h54.166v-30.948v-27.719
	v-97.831L357.251,173.358L357.251,173.358z"/>
<polygon style="fill:#E59F6A;" points="457.088,173.358 457.088,271.189 457.088,298.908 457.088,329.856 476.589,329.856 
	476.589,298.908 476.589,271.189 476.589,173.358 "/>
<path style="fill:#F2DF33;" d="M436.311,126.694h-52.798c-6.731,0-13.275-1.361-19.449-4.045l-11.182-4.862
	c-3.909-1.698-8.372-1.318-11.938,1.019c-3.565,2.338-5.693,6.278-5.693,10.542v35.438c0,27.322,22.229,49.551,49.551,49.551h9.195
	v26.118c0,9.458,7.694,17.152,17.152,17.152c9.457,0,17.151-7.694,17.151-17.152v-17.411c0-3.952,3.216-7.167,7.168-7.167
	s7.167,3.215,7.167,7.167v25.676c0,11.997,9.76,21.757,21.757,21.757h12.197c4.143,0,7.5-3.358,7.5-7.5v-88.503
	C484.089,148.127,462.655,126.694,436.311,126.694z"/>
<path style="fill:#D9B92C;" d="M436.311,126.694h-20.668c26.345,0,47.778,21.433,47.778,47.778v88.503
	c0,3.038-1.809,5.647-4.406,6.826c1.72,0.439,3.521,0.674,5.377,0.674h12.197c4.143,0,7.5-3.358,7.5-7.5v-88.503
	C484.089,148.127,462.655,126.694,436.311,126.694z"/>
<path style="fill:#5C9CEE;" d="M473.305,313.455h-51.108c-21.337,0-38.695,17.359-38.695,38.696V487.63c0,4.142,3.357,7.5,7.5,7.5
	H504.5c4.143,0,7.5-3.358,7.5-7.5V352.151C512,330.814,494.642,313.455,473.305,313.455z"/>
<path style="fill:#3580D3;" d="M473.305,313.455H454.35c21.337,0,38.695,17.359,38.695,38.696V487.63c0,4.142-3.357,7.5-7.5,7.5
	H504.5c4.143,0,7.5-3.358,7.5-7.5V352.151C512,330.814,494.642,313.455,473.305,313.455z"/>
<path style="fill:#F9C295;" d="M154.749,173.358v86.311c0,21.671-17.568,39.239-39.239,39.239H89.577v30.948H35.411v-30.948v-27.719
	v-97.831L154.749,173.358L154.749,173.358z"/>
<g>
	<rect x="68.24" y="298.91" style="fill:#E59F6A;" width="21.333" height="30.948"/>
	<path style="fill:#E59F6A;" d="M133.415,173.358v86.311c0,21.671-17.568,39.239-39.239,39.239h21.333
		c21.671,0,39.239-17.568,39.239-39.239v-86.311H133.415z"/>
</g>
<path style="fill:#9FD479;" d="M89.804,313.455H38.695C17.358,313.455,0,330.814,0,352.151V487.63c0,4.142,3.357,7.5,7.5,7.5
	h113.499c4.143,0,7.5-3.358,7.5-7.5V352.151C128.499,330.814,111.141,313.455,89.804,313.455z"/>
<path style="fill:#7DB24F;" d="M89.804,313.455H70.119c21.337,0,38.695,17.359,38.695,38.696V487.63c0,4.142-3.357,7.5-7.5,7.5
	h19.684c4.143,0,7.5-3.358,7.5-7.5V352.151C128.499,330.814,111.141,313.455,89.804,313.455z"/>
<path style="fill:#F9C295;" d="M156.968,423.988l4.944-14.07c1.529-4.351,5.638-7.263,10.251-7.263h14.698
	c4.189,0,7.586,3.396,7.586,7.586v5.676h9.887c6.321,0,11.446,5.125,11.446,11.446v21.608c0,6.321-5.125,11.446-11.446,11.446
	h-56.878v-36.428h9.512V423.988z"/>
<path style="fill:#7DB24F;" d="M147.454,416.488H82.373v-54.09c0-14.178-11.535-25.713-25.714-25.713s-25.714,11.535-25.714,25.713
	v77.16c0,15.637,12.721,28.358,28.357,28.358h88.151c4.143,0,7.5-3.358,7.5-7.5v-36.428
	C154.954,419.846,151.597,416.488,147.454,416.488z"/>
<path style="fill:#444966;" d="M169.25,126.694H75.689c-26.345,0-47.778,21.434-47.778,47.779v88.503c0,4.142,3.357,7.5,7.5,7.5
	h12.197c11.997,0,21.757-9.76,21.757-21.757v-25.676c0-3.952,3.215-7.167,7.167-7.167s7.168,3.215,7.168,7.167v17.411
	c0,9.458,7.694,17.152,17.151,17.152c9.458,0,17.152-7.694,17.152-17.152v-26.118h9.195c27.322,0,49.551-22.229,49.551-49.551
	v-30.592C176.75,130.052,173.393,126.694,169.25,126.694z"/>
<path style="fill:#2E344C;" d="M169.25,126.694h-21.796c4.143,0,7.5,3.358,7.5,7.5v30.592c0,27.322-22.229,49.551-49.551,49.551
	h-9.195v26.118c0,5.323-2.437,10.086-6.254,13.235c2.965,2.446,6.763,3.917,10.897,3.917c9.458,0,17.152-7.694,17.152-17.152
	v-26.118h9.195c27.322,0,49.551-22.229,49.551-49.551v-30.592C176.75,130.052,173.393,126.694,169.25,126.694z"/>
<path style="fill:#D39053;" d="M120.999,463.416v21.214c0,1.657,1.343,3,3,3h264.002c1.657,0,3-1.343,3-3v-21.214
	c0-1.657-1.343-3-3-3H123.999C122.342,460.416,120.999,461.759,120.999,463.416z"/>
<path style="fill:#7DB24F;" d="M283.936,292.898c-1.044,0.145-1.63,1.279-1.12,2.202c4.707,8.507,12.816,14.785,22.281,16.68
	c7.987,1.599,12.979,1.094,19.781,0c-10.136-2.294-18.809-9.161-23.302-18.675c13.598-0.748,24.394-12.008,24.394-25.793v-52.765
	c0-14.268-11.567-25.835-25.835-25.835h-19.781c14.268,0,25.835,11.567,25.835,25.835v52.765
	C306.189,280.364,296.509,291.154,283.936,292.898z"/>
<path style="fill:#F9C295;" d="M355.032,423.988l-4.944-14.07c-1.529-4.351-5.638-7.263-10.251-7.263H325.14
	c-4.189,0-7.586,3.396-7.586,7.586v5.676h-9.887c-6.321,0-11.446,5.125-11.446,11.446v21.608c0,6.321,5.125,11.446,11.446,11.446
	h56.878v-36.428h-9.513V423.988z"/>
<path style="fill:#3580D3;" d="M455.341,336.685c-14.179,0-25.714,11.535-25.714,25.713v54.09h-65.081c-4.143,0-7.5,3.358-7.5,7.5
	v36.428c0,4.142,3.357,7.5,7.5,7.5h88.151c15.637,0,28.357-12.721,28.357-28.358v-77.16
	C481.055,348.22,469.52,336.685,455.341,336.685z"/>
<g>
</g>
<g>
</g>
<g>
</g>
<g>
</g>
<g>
</g>
<g>
</g>
<g>
</g>
<g>
</g>
<g>
</g>
<g>
</g>
<g>
</g>
<g>
</g>
<g>
</g>
<g>
</g>
<g>
</g>
</svg>
