<?xml version="1.0" encoding="iso-8859-1"?>
<!-- Generator: Adobe Illustrator 19.0.0, SVG Export Plug-In . SVG Version: 6.00 Build 0)  -->
<svg version="1.1" id="Layer_1" xmlns="http://www.w3.org/2000/svg" xmlns:xlink="http://www.w3.org/1999/xlink" x="0px" y="0px"
	 viewBox="0 0 512 512" style="enable-background:new 0 0 512 512;" xml:space="preserve">
<path style="fill:#FF757C;" d="M256.001,11.948c138.085,0,250.026,111.941,250.026,250.026C506.027,400.061,394.086,512,256.001,512
	C117.915,512,5.973,400.061,5.973,261.973C5.973,123.889,117.915,11.948,256.001,11.948z"/>
<path style="fill:#20D0C2;" d="M45.17,58.657h421.659v276.074H45.17V58.657z"/>
<path style="fill:#DFE1E3;" d="M458.548,58.657H256v264.754h202.548V58.657z"/>
<path style="fill:#FFFFFF;" d="M451.374,58.657c-65.123,0-127.324-27.77-195.374,0v247.999h195.374V58.657z"/>
<path style="fill:#DFE1E3;" d="M53.452,58.657H256v264.754H53.452V58.657z"/>
<path style="fill:#FFFFFF;" d="M60.623,58.657c65.123,0,159.238-27.288,195.377,0v247.999H60.623V58.657z"/>
<path style="fill:#ECF0F1;" d="M252.688,58.657h6.623v248.001h-6.623V58.657z"/>
<path style="fill:#FBB429;" d="M77.319,79.596h75.404v10.359H77.319V79.596z"/>
<g>
	<path style="fill:#ECF0F1;" d="M77.319,189.016h150.808v5.457H77.319V189.016z M77.319,178.008L77.319,178.008h150.808v5.458
		H77.319V178.008z M77.319,106.018L77.319,106.018h150.808v5.458H77.319V106.018z M77.319,161.059L77.319,161.059h66.032v5.456
		H77.319V161.059z M77.319,150.051L77.319,150.051h150.808v5.457H77.319V150.051z M77.319,139.042L77.319,139.042h150.808v5.457
		H77.319V139.042z M77.319,128.034L77.319,128.034h150.808v5.457H77.319V128.034z M77.319,117.026L77.319,117.026h150.808v5.457
		H77.319V117.026z M77.319,233.047L77.319,233.047h51.904v5.458H77.319V233.047z M77.319,222.04L77.319,222.04h150.808v5.458H77.319
		V222.04z M77.319,211.032L77.319,211.032h150.808v5.458H77.319V211.032z M77.319,200.025L77.319,200.025h150.808v5.457H77.319
		V200.025z"/>
	<path style="fill:#ECF0F1;" d="M278.283,222.04h150.811v5.458H278.283V222.04z M278.283,139.041L278.283,139.041h150.811v5.457
		H278.283V139.041z M278.283,150.051L278.283,150.051h150.811v5.457H278.283V150.051z M278.283,117.026L278.283,117.026h150.811
		v5.457H278.283V117.026z M278.283,106.018L278.283,106.018h150.811v5.458H278.283V106.018z M278.283,178.008L278.283,178.008
		h150.811v5.458H278.283V178.008z M278.283,189.016L278.283,189.016h150.811v5.457H278.283V189.016z M278.283,200.024
		L278.283,200.024h150.811v5.457H278.283V200.024z M278.283,211.031L278.283,211.031h150.811v5.458H278.283V211.031z"/>
</g>
<g>
	<path style="fill:#C3CCCF;" d="M278.283,233.047h51.903v5.458h-51.903V233.047z"/>
	<path style="fill:#C3CCCF;" d="M278.283,128.034h66.031v5.457h-66.031V128.034z"/>
	<path style="fill:#C3CCCF;" d="M278.283,161.059h66.031v5.456h-66.031V161.059z"/>
</g>
<path style="fill:#FFFFFF;" d="M380.357,38.796c-45.714,15.64-73.277-24.255-121.046,19.863v247.999
	c38.277-17.551,123.566-12.316,121.952-47.927L380.357,38.796z"/>
<path style="fill:#ECF0F1;" d="M344.137,0c3.176,0.153,38.524,7.437,36.221,45.055l1.058,216.834
	c0-13.276-6.859-45.401-33.724-39.849L344.137,0z"/>
<path style="fill:#E6E6E6;" d="M380.357,254.621c6.324,39.185-83.458,32.011-121.046,49.885v2.152
	C297.498,289.148,392.742,294.871,380.357,254.621L380.357,254.621z"/>
<path style="fill:#FED198;" d="M345.449,206.829c5.193-0.673,10.465,4.798,8.375,9.593l-7.69,17.632l1.035,16.54l4.622-4.609
	l9.009-12.776l15.381-30.092l-2.202-25.562c-0.505-5.862,5.396-8.138,9.546-6.505c3.765,1.484,3.967,6.38,4.526,11.677l3.126,29.633
	l-8.786,21.274l2.22,1.311l5.701-12.395c2.23-4.846,8.301-6.648,13.048-4.221c4.749,2.426,6.449,8.204,4.222,13.047l-6.197,13.475
	l2.516,1.483l3.843-8.764c4.831-11.002,22.78-3.732,17.273,8.827l-4.323,9.856l3.013,1.779l2.41-4.923
	c5.623-11.47,22.963-2.787,17.271,8.828l-4.996,10.202l-0.689,1.821l-31.38,52.634c-4.257,7.145-10.56,11.721-15.737,13.543
	c-1.48,0.522-2.869,0.816-4.091,0.884l-46.21,93.029c-14.649-3.476-29.083-8.919-42.942-16.464
	c-7.838-4.266-15.216-9.053-22.116-14.289l56.773-94.768c-4.138-5.628-8.117-16.141-7.243-21.664l-0.03,0.018l0.224-51.035
	c0.015-3.789,8.103-16.139,14.481-23.51C341.867,209.524,344.055,207.436,345.449,206.829L345.449,206.829z"/>
<path style="fill:#666666;" d="M308.115,334.669l68.956,36.511l-54.404,131.817C301.44,508.857,279.09,512,256.001,512
	c-13.186,0-26.131-1.027-38.766-2.994L308.115,334.669z"/>
<path style="fill:#FFFFFF;" d="M316.734,323.522l64.924,33.961l-6.714,12.49L310.02,336.01L316.734,323.522z"/>
<path style="fill:#C8CACC;" d="M354.735,377.006c3.556,1.894,4.946,6.238,3.105,9.705c-1.84,3.464-6.216,4.74-9.768,2.848
	c-3.555-1.89-4.943-6.233-3.105-9.701C346.807,376.394,351.182,375.118,354.735,377.006L354.735,377.006z"/>
<g>
	<path style="fill:#FFFFFF;" d="M344.223,205.943l-5.578,7.32l3.294,0.601l5.152-7.051
		C347.091,206.812,346.357,204.724,344.223,205.943L344.223,205.943z"/>
	<path style="fill:#FFFFFF;" d="M378.247,171.463l1.239,8.653l7.452-1.097l-1.596-6.738
		C385.342,172.28,383.386,167.961,378.247,171.463z"/>
</g>
<g>
	<path style="fill:#ECF0F1;" d="M351.617,221.48c-1.257,0.096-2.565,0.279-3.926,0.559l-0.228-15.176
		c4.424,0.704,8.178,5.387,6.361,9.559L351.617,221.48z"/>
	<path style="fill:#ECF0F1;" d="M278.283,227.051c18.517-19.546,40.63-35.699,69.023-34.563c0,1.826,0,3.654,0,5.464
		c-27.793-2.307-51.148,15.754-69.023,34.725C278.283,230.818,278.283,228.944,278.283,227.051L278.283,227.051z M278.283,141.231
		L278.283,141.231c31.763-30.485,41.613-10.816,67.78-26.399c0,1.828,0,3.655,0,5.465c-27.683,15.336-36.124-4.032-67.78,26.577
		C278.283,144.999,278.283,143.124,278.283,141.231z M278.283,152.616L278.283,152.616c0,1.891,0,3.767,0,5.641
		c30.928-30.302,37.387-12.698,67.956-27.049c0-1.811,0-3.636,0-5.463C316.992,140.689,309.705,122.051,278.283,152.616
		L278.283,152.616z M278.283,118.463L278.283,118.463c0,1.891,0,3.768,0,5.642c31.254-29.411,45.429-11.448,67.404-27.301
		c0-1.81,0-3.621,0-5.449C324.799,107.292,309.333,89.466,278.283,118.463z M278.283,107.078L278.283,107.078
		c0,1.891,0,3.769,0,5.643c30.759-28.55,47.439-10.836,67.404-26.928c0-1.81,0-3.637,0-5.462
		C326.471,96.613,308.828,78.946,278.283,107.078z M278.283,181.531L278.283,181.531c24.021-27.825,35.014-24.195,68.344-34.069
		c0,1.826,0,3.652,0,5.463c-33.165,8.451-44.826,8.135-68.344,34.251C278.283,185.299,278.283,183.408,278.283,181.531z
		 M278.283,192.915L278.283,192.915c0,1.877,0,3.751,0,5.626c23.286-23.848,36.403-29.226,68.48-34.646l-0.136-5.425
		C313.894,165.449,302.858,167.886,278.283,192.915L278.283,192.915z M278.283,204.299L278.283,204.299c0,1.877,0,3.752,0,5.628
		c21.102-21.887,38.041-32.087,68.661-34.717c0-1.81,0-3.636,0-5.463C315.555,173.79,300.45,181.439,278.283,204.299z
		 M278.283,215.668L278.283,215.668c0,1.893,0,3.767,0,5.643c19.278-20.239,39.742-34.594,68.844-34.635c0-1.81,0-3.637,0-5.464
		C317.285,182.536,298.426,194.662,278.283,215.668L278.283,215.668z"/>
</g>
<g>
</g>
<g>
</g>
<g>
</g>
<g>
</g>
<g>
</g>
<g>
</g>
<g>
</g>
<g>
</g>
<g>
</g>
<g>
</g>
<g>
</g>
<g>
</g>
<g>
</g>
<g>
</g>
<g>
</g>
</svg>
